<svg width="154" height="102" viewBox="0 0 154 102" fill="none" xmlns="http://www.w3.org/2000/svg">
<g clip-path="url(#clip0_6_5877)">
<path d="M70.6402 33.7216C76.5817 32.8801 82.215 30.5564 87.0754 27.034C94.3353 21.7725 109.525 12.8223 124.016 17.2815C144.003 23.431 144.093 41.2237 138.886 50.8881C133.68 60.5526 96.7594 88.8537 48.8946 84.3505C6.06382 80.3193 -2.28219 34.1937 20.5617 25.8477C40.3749 18.6073 47.1334 37.0531 70.6402 33.7216V33.7216Z" fill="#7775B7"/>
<g opacity="0.06">
<path d="M120.193 69.1432C120.193 69.1432 123.182 67.7759 124.349 70.151C125.515 72.5261 121.247 74.9624 118.926 74.2628C116.602 73.5633 117.01 70.0629 120.193 69.1432Z" fill="black"/>
</g>
<g opacity="0.06">
<path d="M72.9958 26.3173C72.9958 26.3173 76.2491 25.2973 77.1419 27.8926C78.0347 30.4879 73.3284 32.4423 71.0291 31.4198C68.7298 30.3998 69.6031 26.8506 72.9958 26.3149V26.3173Z" fill="black"/>
</g>
<path d="M61.262 0.836558V18.4067C61.262 18.869 60.8877 19.2408 60.4278 19.2408H30.6885C30.2262 19.2408 29.8543 18.8666 29.8543 18.4067V0.834112C29.8519 0.37425 30.2262 0 30.6885 0H60.4278C60.8901 0 61.262 0.37425 61.262 0.836558Z" fill="white"/>
<path d="M42.9751 10.7896C42.9751 12.2157 42.4345 13.517 41.549 14.4979C40.5364 15.6206 39.0712 16.3251 37.4396 16.3251C34.382 16.3251 31.9042 13.8472 31.9042 10.7896C31.9042 10.0314 32.0558 9.30976 32.3322 8.64932L37.4396 10.7896L37.1779 5.26151C37.2635 5.25662 37.3516 5.25417 37.4396 5.25417C40.4972 5.25417 42.9751 7.73204 42.9751 10.7896V10.7896Z" fill="#5C4DA0"/>
<path d="M36.6275 4.34912C34.974 4.42495 33.5112 5.22726 32.5475 6.44541C32.2368 6.83678 31.98 7.27218 31.7843 7.73938L36.8893 9.87725L36.6275 4.34912Z" fill="#675FA6"/>
<path d="M56.2989 6.97865H55.5381V7.73938H56.2989V6.97865Z" fill="#3E3D98"/>
<path d="M59.535 7.2624H56.8101C56.806 7.2624 56.8027 7.26568 56.8027 7.26974V7.44585C56.8027 7.44991 56.806 7.45319 56.8101 7.45319H59.535C59.5391 7.45319 59.5424 7.44991 59.5424 7.44585V7.26974C59.5424 7.26568 59.5391 7.2624 59.535 7.2624Z" fill="#E8D3E7"/>
<path d="M56.2989 5.62353H55.5381V6.38426H56.2989V5.62353Z" fill="#3E3D98"/>
<path d="M59.535 5.90727H56.8101C56.806 5.90727 56.8027 5.91056 56.8027 5.91461V6.09073C56.8027 6.09478 56.806 6.09807 56.8101 6.09807H59.535C59.5391 6.09807 59.5424 6.09478 59.5424 6.09073V5.91461C59.5424 5.91056 59.5391 5.90727 59.535 5.90727Z" fill="#E8D3E7"/>
<path d="M56.2989 8.33133H55.5381V9.09206H56.2989V8.33133Z" fill="#675FA6"/>
<path d="M59.535 8.61752H56.8101C56.806 8.61752 56.8027 8.62081 56.8027 8.62486V8.80098C56.8027 8.80503 56.806 8.80832 56.8101 8.80832H59.535C59.5391 8.80832 59.5424 8.80503 59.5424 8.80098V8.62486C59.5424 8.62081 59.5391 8.61752 59.535 8.61752Z" fill="#E8D3E7"/>
<path d="M59.447 11.4745H55.6335C55.5822 11.4745 55.5381 11.433 55.5381 11.3791C55.5381 11.3278 55.5797 11.2837 55.6335 11.2837H59.447C59.4983 11.2837 59.5424 11.3253 59.5424 11.3791C59.5424 11.4305 59.5008 11.4745 59.447 11.4745Z" fill="#E8D3E7"/>
<path d="M59.447 12.2548H55.6335C55.5822 12.2548 55.5381 12.2133 55.5381 12.1594C55.5381 12.1081 55.5797 12.064 55.6335 12.064H59.447C59.4983 12.064 59.5424 12.1056 59.5424 12.1594C59.5424 12.2108 59.5008 12.2548 59.447 12.2548Z" fill="#E8D3E7"/>
<path d="M59.447 13.0376H55.6335C55.5822 13.0376 55.5381 12.996 55.5381 12.9422C55.5381 12.8908 55.5797 12.8468 55.6335 12.8468H59.447C59.4983 12.8468 59.5424 12.8884 59.5424 12.9422C59.5424 12.9936 59.5008 13.0376 59.447 13.0376Z" fill="#E8D3E7"/>
<path d="M59.447 13.8179H55.6335C55.5822 13.8179 55.5381 13.7763 55.5381 13.7225C55.5381 13.6711 55.5797 13.6271 55.6335 13.6271H59.447C59.4983 13.6271 59.5424 13.6687 59.5424 13.7225C59.5424 13.7738 59.5008 13.8179 59.447 13.8179Z" fill="#E8D3E7"/>
<path d="M59.447 14.6006H55.6335C55.5822 14.6006 55.5381 14.559 55.5381 14.5052C55.5381 14.4539 55.5797 14.4098 55.6335 14.4098H59.447C59.4983 14.4098 59.5424 14.4514 59.5424 14.5052C59.5424 14.5566 59.5008 14.6006 59.447 14.6006Z" fill="#E8D3E7"/>
<path d="M59.447 15.3809H55.6335C55.5822 15.3809 55.5381 15.3393 55.5381 15.2855C55.5381 15.2342 55.5797 15.1901 55.6335 15.1901H59.447C59.4983 15.1901 59.5424 15.2317 59.5424 15.2855C59.5424 15.3369 59.5008 15.3809 59.447 15.3809Z" fill="#E8D3E7"/>
<path d="M59.447 16.1637H55.6335C55.5822 16.1637 55.5381 16.1221 55.5381 16.0683C55.5381 16.0169 55.5797 15.9729 55.6335 15.9729H59.447C59.4983 15.9729 59.5424 16.0145 59.5424 16.0683C59.5424 16.1196 59.5008 16.1637 59.447 16.1637Z" fill="#E8D3E7"/>
<path d="M61.262 0.836558V2.30176H29.8519V0.834112C29.8519 0.37425 30.2262 0 30.6885 0H60.4278C60.8901 0 61.262 0.37425 61.262 0.836558Z" fill="#28100C"/>
<path d="M57.9524 1.1521C57.9524 1.36491 57.7787 1.53858 57.5659 1.53858C57.3531 1.53858 57.1795 1.36491 57.1795 1.1521C57.1795 0.939292 57.3531 0.765621 57.5659 0.765621C57.7787 0.765621 57.9524 0.939292 57.9524 1.1521Z" fill="#675FA6"/>
<path d="M59.2072 1.1521C59.2072 1.36491 59.0336 1.53858 58.8208 1.53858C58.608 1.53858 58.4343 1.36491 58.4343 1.1521C58.4343 0.939292 58.608 0.765621 58.8208 0.765621C59.0336 0.765621 59.2072 0.939292 59.2072 1.1521Z" fill="#5C4DA0"/>
<path d="M60.4083 1.1521C60.4083 1.36491 60.2346 1.53858 60.0218 1.53858C59.809 1.53858 59.6353 1.36491 59.6353 1.1521C59.6353 0.939292 59.809 0.765621 60.0218 0.765621C60.2346 0.765621 60.4083 0.939292 60.4083 1.1521Z" fill="#3E3D98"/>
<path d="M42.9751 10.7896C42.9751 12.2157 42.4345 13.517 41.549 14.4979L37.4396 10.7896L37.1779 5.26151C37.2635 5.25662 37.3516 5.25417 37.4396 5.25417C40.4972 5.25417 42.9751 7.73204 42.9751 10.7896V10.7896Z" fill="#3E3D98"/>
<path d="M50.125 9.39048H48.3638V16.9415H50.125V9.39048Z" fill="#5C4DA0"/>
<path d="M48.3638 14.9504C48.9875 14.7572 49.5746 14.4123 50.125 14.0405V16.9415H48.3638V14.9504V14.9504Z" fill="#3E3D98"/>
<path d="M47.2435 11.4892H45.4823V16.9415H47.2435V11.4892Z" fill="#5C4DA0"/>
<path d="M46.9182 15.0776C47.0282 15.0947 47.1359 15.1045 47.2435 15.107V16.9415H45.4823V15.1241C45.793 15.0213 46.2504 14.9798 46.9182 15.0776V15.0776Z" fill="#3E3D98"/>
<path d="M53.004 7.1352H51.2428V16.9415H53.004V7.1352Z" fill="#5C4DA0"/>
<path d="M53.0064 12.5092V16.9415H51.2453V13.2626C51.8715 12.837 52.4561 12.5068 53.0064 12.5092V12.5092Z" fill="#3E3D98"/>
<path d="M52.9355 4.27574L51.3456 4.61574L51.7736 5.03402L49.3398 7.51679L48.4861 6.67779L45.4652 9.75739C45.3502 9.87481 45.3527 10.0632 45.4701 10.1781C45.5875 10.2931 45.7758 10.2906 45.8908 10.1732L48.4959 7.51924L49.3496 8.35824L52.2017 5.44986L52.6298 5.86813L52.9404 4.27085L52.9355 4.27574Z" fill="#5C4DA0"/>
<path d="M47.0258 54.9144V25.1505C47.0258 24.6956 46.6564 24.3262 46.2015 24.3262H31.1385C30.6836 24.3262 30.3142 24.6956 30.3142 25.1505V54.9144C30.3142 55.8341 31.0603 56.5826 31.9824 56.5826H45.36C46.2797 56.5826 47.0282 55.8366 47.0282 54.9144H47.0258Z" fill="white"/>
<path d="M44.5235 46.9304H33.3914C33.1883 46.9304 33.0245 46.7665 33.0245 46.5635C33.0245 46.3605 33.1883 46.1966 33.3914 46.1966H44.5235C44.7265 46.1966 44.8904 46.3605 44.8904 46.5635C44.8904 46.7665 44.7265 46.9304 44.5235 46.9304Z" fill="#E8D3E7"/>
<path d="M44.5235 49.2591H33.3914C33.1883 49.2591 33.0245 49.0952 33.0245 48.8922C33.0245 48.6891 33.1883 48.5252 33.3914 48.5252H44.5235C44.7265 48.5252 44.8904 48.6891 44.8904 48.8922C44.8904 49.0952 44.7265 49.2591 44.5235 49.2591Z" fill="#E8D3E7"/>
<path d="M44.5235 51.5877H33.3914C33.1883 51.5877 33.0245 51.4238 33.0245 51.2208C33.0245 51.0178 33.1883 50.8539 33.3914 50.8539H44.5235C44.7265 50.8539 44.8904 51.0178 44.8904 51.2208C44.8904 51.4238 44.7265 51.5877 44.5235 51.5877Z" fill="#E8D3E7"/>
<path d="M44.5235 53.9164H33.3914C33.1883 53.9164 33.0245 53.7525 33.0245 53.5495C33.0245 53.3465 33.1883 53.1826 33.3914 53.1826H44.5235C44.7265 53.1826 44.8904 53.3465 44.8904 53.5495C44.8904 53.7525 44.7265 53.9164 44.5235 53.9164Z" fill="#E8D3E7"/>
<path d="M47.0258 25.1505V27.4352H30.3142V25.1505C30.3142 24.6956 30.6836 24.3262 31.1385 24.3262H46.2015C46.6564 24.3262 47.0258 24.6956 47.0258 25.1505Z" fill="#28100C"/>
<path d="M42.98 25.7303C42.98 26.0311 42.7378 26.2733 42.437 26.2733C42.1361 26.2733 41.8939 26.0311 41.8939 25.7303C41.8939 25.4294 42.1361 25.1872 42.437 25.1872C42.7378 25.1872 42.98 25.4294 42.98 25.7303Z" fill="#675FA6"/>
<path d="M44.7412 25.7303C44.7412 26.0311 44.499 26.2733 44.1981 26.2733C43.8973 26.2733 43.6551 26.0311 43.6551 25.7303C43.6551 25.4294 43.8973 25.1872 44.1981 25.1872C44.499 25.1872 44.7412 25.4294 44.7412 25.7303Z" fill="#5C4DA0"/>
<path d="M46.4265 25.7303C46.4265 26.0311 46.1843 26.2733 45.8835 26.2733C45.5826 26.2733 45.3404 26.0311 45.3404 25.7303C45.3404 25.4294 45.5826 25.1872 45.8835 25.1872C46.1843 25.1872 46.4265 25.4294 46.4265 25.7303Z" fill="#3E3D98"/>
<path d="M35.5023 40.1743H33.6237V44.7167H35.5023V40.1743Z" fill="#5C4DA0"/>
<path d="M38.2737 36.948H36.3951V44.7143H38.2737V36.948Z" fill="#3E3D98"/>
<path d="M41.3436 34.5679H39.465V44.7167H41.3436V34.5679Z" fill="#675FA6"/>
<path d="M44.3522 31.7745H42.4736V44.7143H44.3522V31.7745Z" fill="#5C4DA0"/>
<path d="M40.8886 29.7859L42.1899 30.2628L42.0407 28.7365L40.8886 29.7859Z" fill="#E8D3E7"/>
<path d="M33.1052 37.968C33.0489 37.968 32.9951 37.9337 32.9731 37.8775C32.9462 37.8041 32.9829 37.7234 33.0563 37.6965C33.1125 37.6745 38.7703 35.5072 41.5295 29.6831C41.5637 29.6122 41.6469 29.5828 41.7178 29.6171C41.7887 29.6513 41.8181 29.7345 41.7839 29.8054C38.9733 35.7372 33.2128 37.9411 33.1565 37.9631C33.1394 37.968 33.1247 37.9729 33.1076 37.9729L33.1052 37.968Z" fill="#E8D3E7"/>
<path d="M67.2377 1.14965V5.79475C67.2377 6.40872 67.7367 6.90772 68.3507 6.90772H76.7847L79.3311 7.8201C79.5928 7.91305 79.8423 7.65621 79.742 7.39938L78.7783 4.91172V1.14965C78.7783 0.53569 78.2793 0.0366907 77.6653 0.0366907H68.3482C67.7343 0.0366907 67.2353 0.53569 67.2353 1.14965H67.2377Z" fill="#5C4DA0"/>
<path d="M74.5637 3.60551C74.5637 4.0507 74.9233 4.41027 75.3685 4.41027C75.8136 4.41027 76.1732 4.0507 76.1732 3.60551C76.1732 3.16033 75.8136 2.80076 75.3685 2.80076C74.9233 2.80076 74.5637 3.16033 74.5637 3.60551V3.60551Z" fill="#4A429A"/>
<path d="M72.0173 3.60551C72.0173 4.0507 72.3769 4.41027 72.8221 4.41027C73.2673 4.41027 73.6269 4.0507 73.6269 3.60551C73.6269 3.16033 73.2673 2.80076 72.8221 2.80076C72.3769 2.80076 72.0173 3.16033 72.0173 3.60551V3.60551Z" fill="#4A429A"/>
<path d="M69.471 3.60551C69.471 4.0507 69.8305 4.41027 70.2757 4.41027C70.7209 4.41027 71.0805 4.0507 71.0805 3.60551C71.0805 3.16033 70.7209 2.80076 70.2757 2.80076C69.8305 2.80076 69.471 3.16033 69.471 3.60551V3.60551Z" fill="#4A429A"/>
<path d="M90.632 1.50678H94.6484C94.9077 1.50678 95.1156 1.71714 95.1156 1.97398V5.99044C95.1156 6.24972 94.9053 6.45764 94.6484 6.45764H90.632C90.3727 6.45764 90.1648 6.24728 90.1648 5.99044V1.97643C90.1648 1.71715 90.3751 1.50923 90.632 1.50923V1.50678Z" fill="#675FA6"/>
<path d="M94.0394 2.96464C94.032 2.9304 94.0222 2.89615 94.0149 2.86191C93.9855 2.74205 93.9268 2.63687 93.8461 2.54147C93.7874 2.47543 93.7214 2.41672 93.6455 2.37269C93.5403 2.31154 93.4229 2.33845 93.3447 2.4314C93.2077 2.59773 93.0683 2.76407 92.9337 2.93284C92.8506 3.03558 92.8628 3.17745 92.968 3.26796C93.0414 3.334 93.1196 3.39515 93.1979 3.45875C93.2077 3.46609 93.2199 3.47343 93.2273 3.47832C93.0438 3.96998 92.7331 4.35157 92.288 4.62553C92.2341 4.5815 92.1779 4.53258 92.1216 4.4861C92.0923 4.46164 92.0629 4.43718 92.0336 4.41517C91.9431 4.34668 91.8403 4.33934 91.7474 4.40049C91.718 4.42006 91.6936 4.44941 91.6715 4.47632C91.5468 4.62797 91.4245 4.77963 91.2997 4.92884C91.2606 4.97532 91.2361 5.02913 91.2264 5.09028L91.2337 5.15633C91.2557 5.19302 91.2704 5.23949 91.2997 5.26885C91.3731 5.34223 91.4538 5.40583 91.5492 5.44986C91.6618 5.50122 91.7792 5.53058 91.9015 5.52079C91.9822 5.51345 92.0629 5.49633 92.1412 5.47432C92.3418 5.41806 92.5277 5.32266 92.6989 5.20525C92.8701 5.09028 93.0267 4.95575 93.1685 4.80654C93.3618 4.60596 93.533 4.38826 93.6896 4.15588C93.8119 3.97487 93.917 3.78408 93.988 3.57372C94.0222 3.46854 94.0467 3.36091 94.054 3.24839C94.0565 3.20436 94.0589 3.15788 94.0589 3.11385L94.0442 2.95975L94.0394 2.96464Z" fill="white"/>
<path d="M101.94 1.41872H97.75C97.519 1.41872 97.3318 1.60599 97.3318 1.837V6.02713C97.3318 6.25814 97.519 6.44541 97.75 6.44541H101.94C102.171 6.44541 102.358 6.25814 102.358 6.02713V1.837C102.358 1.60599 102.171 1.41872 101.94 1.41872Z" fill="#5C4DA0"/>
<path d="M101.449 3.83789C101.449 4.46409 101.096 4.78942 100.678 4.78942C100.431 4.78942 100.252 4.69402 100.159 4.50322C100.066 4.68423 99.9099 4.78942 99.6604 4.78942C99.3058 4.78942 98.9657 4.47876 98.9657 3.97243C98.9657 3.46609 99.296 3.15788 99.6604 3.15788C99.8341 3.15788 99.9686 3.21414 100.064 3.31932V3.18724H100.695V4.12653C100.695 4.26351 100.751 4.30754 100.822 4.30754C100.915 4.30754 100.989 4.21459 100.989 3.84768C100.989 3.25328 100.546 2.835 99.8708 2.835C99.1957 2.835 98.7456 3.30709 98.7456 3.93084C98.7456 4.55459 99.1883 5.03402 99.8586 5.03402C100.076 5.03402 100.299 4.99244 100.521 4.8897L100.658 5.29331C100.463 5.3887 100.15 5.44986 99.8586 5.44986C98.8704 5.44986 98.2368 4.78942 98.2368 3.93084C98.2368 3.07227 98.8704 2.41917 99.8708 2.41917C100.815 2.41917 101.449 3.0527 101.449 3.84034V3.83789ZM100.076 3.97243C100.076 3.77674 99.9735 3.67401 99.839 3.67401C99.7045 3.67401 99.6066 3.77674 99.6066 3.97243C99.6066 4.16811 99.7045 4.27329 99.839 4.27329C99.9735 4.27329 100.076 4.17056 100.076 3.97243Z" fill="white"/>
<path d="M108.713 1.41872H104.523C104.292 1.41872 104.105 1.60599 104.105 1.837V6.02713C104.105 6.25814 104.292 6.44541 104.523 6.44541H108.713C108.944 6.44541 109.132 6.25814 109.132 6.02713V1.837C109.132 1.60599 108.944 1.41872 108.713 1.41872Z" fill="#3E3D98"/>
<path d="M106.879 5.09028V5.44741L106.421 5.44252V5.10007C106.101 5.07805 105.79 4.98755 105.597 4.86769L105.847 4.31488C106.059 4.44207 106.341 4.52524 106.59 4.52768C106.805 4.52768 106.884 4.4861 106.884 4.40783C106.884 4.12408 105.636 4.34178 105.644 3.50278C105.646 3.13831 105.913 2.835 106.443 2.76406V2.41183L106.901 2.41672V2.76162C107.136 2.78608 107.368 2.84968 107.551 2.95486L107.319 3.50523C107.096 3.39026 106.889 3.334 106.693 3.33155C106.47 3.33155 106.399 3.39271 106.399 3.47098C106.399 3.74249 107.647 3.52724 107.64 4.35891C107.637 4.70625 107.383 5.00712 106.884 5.09028H106.879Z" fill="white"/>
<g opacity="0.06">
<path d="M122.869 94.6753C122.869 95.3823 129.838 95.9546 138.433 95.9546C147.029 95.9546 153.998 95.3823 153.998 94.6753C153.998 93.9684 147.029 93.396 138.433 93.396C129.838 93.396 122.869 93.9684 122.869 94.6753V94.6753Z" fill="black"/>
</g>
<path d="M148.428 82.2003H129.023C128.9 82.2003 128.801 82.3 128.801 82.4229V83.5506C128.801 83.6735 128.9 83.7732 129.023 83.7732H148.428C148.551 83.7732 148.65 83.6735 148.65 83.5506V82.4229C148.65 82.3 148.551 82.2003 148.428 82.2003Z" fill="#3D2027"/>
<path d="M147.777 64.7794H129.632C129.331 64.7794 129.087 65.0236 129.087 65.3249V67.5557C129.087 67.857 129.331 68.1012 129.632 68.1012H147.777C148.078 68.1012 148.323 67.857 148.323 67.5557V65.3249C148.323 65.0236 148.078 64.7794 147.777 64.7794Z" fill="#8C5D55"/>
<path d="M138.886 56.1399H140.649C140.649 56.1399 140.735 55.9637 140.887 55.6433C140.96 55.4917 141.046 55.3082 141.146 55.0954C141.398 54.5622 141.726 53.8479 142.107 53.004C142.11 52.9967 142.115 52.9893 142.117 52.982C144.495 47.696 148.761 37.4323 147.016 35.3898C145.035 33.0709 142.67 36.5444 140.95 43.117C140.833 43.5695 140.718 44.0342 140.605 44.5137C139.989 47.1628 139.475 50.2326 139.121 53.5739C139.067 54.0754 139.018 54.5817 138.971 55.0929C138.94 55.4378 138.91 55.7876 138.883 56.1399H138.886Z" fill="#5C4DA0"/>
<path d="M138.974 55.0954L139.505 56.1423H140.649C140.649 56.1423 140.735 55.9662 140.887 55.6458L140.95 43.1194C140.082 46.4363 139.38 50.5457 138.974 55.0954V55.0954Z" fill="#4A429A"/>
<path d="M139.441 56.1399H139.73L145.285 37.9411C145.307 37.8677 145.265 37.7919 145.194 37.7698C145.121 37.7478 145.045 37.7894 145.023 37.8628L139.443 56.1399H139.441Z" fill="white"/>
<path d="M134.378 52.4463C134.507 52.7398 134.634 53.0211 134.754 53.2877C135.08 54.0069 135.366 54.6209 135.586 55.0929C135.897 55.7558 136.082 56.1399 136.082 56.1399H137.846C137.819 55.7901 137.79 55.4403 137.758 55.0929C137.714 54.6062 137.668 54.1219 137.616 53.6449C137.274 50.3818 136.777 47.3756 136.183 44.7656C136.09 44.362 135.997 43.9658 135.899 43.5817C134.172 36.7082 131.743 33.0147 129.715 35.3874C128.028 37.3614 131.963 47.0282 134.375 52.4438L134.378 52.4463Z" fill="#5C4DA0"/>
<path d="M137.758 55.0954L137.227 56.1423H136.083C136.083 56.1423 135.997 55.9662 135.845 55.6458L135.782 43.1194C136.65 46.4363 137.352 50.5457 137.758 55.0954V55.0954Z" fill="#4A429A"/>
<path d="M137.291 56.1399H137.002L131.447 37.9411C131.425 37.8677 131.467 37.7919 131.538 37.7698C131.611 37.7478 131.687 37.7894 131.709 37.8628L137.288 56.1399H137.291Z" fill="white"/>
<path d="M136.185 44.7681C136.432 48.2488 136.775 51.5021 137.019 53.6302C137.198 55.1859 137.325 56.1399 137.325 56.1399H138.886C139.069 55.2666 139.235 54.4007 139.392 53.547C139.969 50.3696 140.368 47.3267 140.605 44.5161C141.518 33.7436 140.087 26.4201 137.462 28.3696C135.579 29.7687 135.686 37.7283 136.185 44.7705V44.7681Z" fill="#5C4DA0"/>
<path d="M134.754 53.2877C135.08 54.0069 135.366 54.6209 135.586 55.0929C135.897 55.7558 136.083 56.1399 136.083 56.1399H140.649C140.649 56.1399 140.735 55.9638 140.887 55.6433C140.96 55.4917 141.046 55.3082 141.146 55.0954C141.398 54.5622 141.726 53.8479 142.107 53.004C141.547 53.1654 140.573 53.4101 139.394 53.547C139.306 53.5568 139.216 53.5666 139.123 53.5764C138.648 53.6229 138.142 53.6498 137.619 53.6473C137.421 53.6473 137.222 53.6424 137.019 53.6326C136.278 53.5959 135.51 53.4908 134.754 53.2902V53.2877Z" fill="#4A429A"/>
<path d="M138.24 31.7329L138.426 56.1423H138.702L138.516 31.7329C138.516 31.6571 138.453 31.5984 138.377 31.596C138.301 31.596 138.24 31.6596 138.24 31.7354V31.7329Z" fill="white"/>
<path d="M130.398 55.9515L130.625 56.5581L130.77 56.9422L131.183 58.0405L131.327 58.4245L131.753 59.5521L131.897 59.9362L133.722 64.7794H143.685L145.51 59.9362L145.654 59.5521L146.08 58.4245L146.224 58.0405L146.637 56.9422L146.782 56.5581L147.009 55.9515C147.166 55.5357 146.86 55.0929 146.415 55.0929H130.99C130.547 55.0929 130.241 55.5357 130.395 55.9515H130.398Z" fill="#FBB416"/>
<path d="M130.628 56.5582L130.77 56.9422H146.637L146.782 56.5582H130.628Z" fill="#F8A81B"/>
<path d="M131.185 58.0405L131.33 58.4245H146.08L146.224 58.0405H131.185Z" fill="#F8A81B"/>
<path d="M131.755 59.5521L131.9 59.9362H145.51L145.654 59.5521H131.755Z" fill="#F8A81B"/>
<path d="M141.373 68.1012L141.926 69.8819L149.617 94.6753H151.121L146.243 70.3883L145.784 68.1012H141.373Z" fill="#6E4945"/>
<path d="M145.784 68.1012H141.373L141.926 69.8819L146.243 70.3883L145.784 68.1012Z" fill="#3D2027"/>
<path d="M126.242 94.6753H127.746L135.667 69.1481L135.99 68.1012H131.582L131.469 68.6564L126.242 94.6753Z" fill="#6E4945"/>
<path d="M131.469 68.6564L135.667 69.1481L135.99 68.1012H131.582L131.469 68.6564Z" fill="#3D2027"/>
<path d="M129.405 80.3536H148.041C148.376 80.3536 148.648 80.082 148.648 79.7469V79.3874C148.648 79.0523 148.376 78.7807 148.041 78.7807H129.405C129.07 78.7807 128.798 79.0523 128.798 79.3874V79.7469C128.798 80.082 129.07 80.3536 129.405 80.3536Z" fill="#8C5D55"/>
<path d="M25.5019 19.7529C28.2129 17.0419 28.2129 12.6465 25.5019 9.93552C22.7909 7.22452 18.3955 7.22452 15.6844 9.93552C12.9734 12.6465 12.9734 17.0419 15.6844 19.7529C18.3955 22.4639 22.7909 22.4639 25.5019 19.7529Z" fill="#F2D6BA"/>
<path d="M25.5021 18.8481C28.2131 16.1371 28.2131 11.7417 25.5021 9.03067C22.791 6.31966 18.3956 6.31966 15.6846 9.03066C12.9736 11.7417 12.9736 16.1371 15.6846 18.8481C18.3956 21.5591 22.791 21.5591 25.5021 18.8481Z" fill="#FBB416"/>
<path d="M26.1679 14.8364C26.6637 11.7581 24.5702 8.86078 21.4919 8.36497C18.4136 7.86915 15.5163 9.96264 15.0205 13.0409C14.5246 16.1192 16.6181 19.0166 19.6964 19.5124C22.7747 20.0082 25.6721 17.9147 26.1679 14.8364Z" fill="white"/>
<path d="M14.9504 13.9402C14.9504 14.0894 14.9553 14.2386 14.9675 14.3854C15.195 11.4794 17.6338 9.18746 20.5935 9.18746C23.5533 9.18746 25.992 11.4819 26.2195 14.3854C26.2317 14.2386 26.2366 14.0894 26.2366 13.9402C26.2366 10.8263 23.7049 8.29464 20.5911 8.29464C17.4797 8.29464 14.9455 10.8263 14.9455 13.9402H14.9504Z" fill="#F2D6BA"/>
<path d="M20.5935 14.5272C20.6375 14.5272 20.6791 14.5077 20.706 14.471L23.475 10.7432C23.5215 10.6796 23.5092 10.5915 23.4456 10.545C23.382 10.4986 23.294 10.5108 23.2475 10.5744L20.5446 14.2117L17.4748 12.8639C17.4038 12.8321 17.3207 12.8639 17.2889 12.9373C17.2571 13.0082 17.2889 13.0914 17.3622 13.1232L20.5348 14.515C20.5544 14.5223 20.5715 14.5272 20.5911 14.5272H20.5935Z" fill="#28100C"/>
<g opacity="0.06">
<path d="M1.0934 95.0374C1.0934 95.9302 7.1034 96.6542 14.5175 96.6542C21.9315 96.6542 27.9415 95.9302 27.9415 95.0374C27.9415 94.1445 21.9315 93.4205 14.5175 93.4205C7.1034 93.4205 1.0934 94.1445 1.0934 95.0374V95.0374Z" fill="black"/>
</g>
<path d="M1.99844 49.1172L5.13187 94.9371H23.903L27.0365 49.1172H1.99844Z" fill="#6E4945"/>
<path d="M2.20636 52.1699L26.7307 53.5837L26.9068 51.0129H2.12809L2.20636 52.1699Z" fill="#3D2027"/>
<path d="M27.9709 48.1706H1.06404C0.750627 48.1706 0.496553 48.4246 0.496553 48.7381V50.4454C0.496553 50.7588 0.750627 51.0129 1.06404 51.0129H27.9709C28.2843 51.0129 28.5384 50.7588 28.5384 50.4454V48.7381C28.5384 48.4246 28.2843 48.1706 27.9709 48.1706Z" fill="#8C5D55"/>
<path d="M4.80409 56.2328L5.41806 67.0787H23.6169L24.2308 56.2328H4.80409Z" fill="#3D2027"/>
<path d="M13.61 62.1034C13.61 62.6048 14.016 63.0109 14.5175 63.0109C15.0189 63.0109 15.425 62.6048 15.425 62.1034C15.425 61.602 15.0189 61.1959 14.5175 61.1959C14.016 61.1959 13.61 61.602 13.61 62.1034V62.1034Z" fill="#6E4945"/>
<path d="M5.66022 69.6202L6.22037 79.5097H22.8145L23.3747 69.6202H5.66022Z" fill="#3D2027"/>
<path d="M13.61 74.9233C13.61 75.4247 14.016 75.8308 14.5175 75.8308C15.0189 75.8308 15.425 75.4247 15.425 74.9233C15.425 74.4218 15.0189 74.0158 14.5175 74.0158C14.016 74.0158 13.61 74.4218 13.61 74.9233Z" fill="#6E4945"/>
<path d="M6.39893 82.0071L6.91261 91.0723H22.1199L22.636 82.0071H6.39893Z" fill="#3D2027"/>
<path d="M13.61 86.5397C13.61 87.0411 14.016 87.4472 14.5175 87.4472C15.0189 87.4472 15.425 87.0411 15.425 86.5397C15.425 86.0383 15.0189 85.6322 14.5175 85.6322C14.016 85.6322 13.61 86.0383 13.61 86.5397Z" fill="#6E4945"/>
<path d="M6.48944 32.0436C6.76584 33.5602 7.08383 34.7343 7.08383 34.7343C7.08383 34.7343 7.84456 36.4318 8.52457 36.9333C8.99911 37.2831 9.43207 37.0483 9.53725 35.2431C9.55437 34.9495 9.56415 34.6144 9.56171 34.2353C9.56171 34.2353 9.66934 33.3694 9.7207 32.1781C9.83322 29.5877 9.68157 25.4636 7.58773 25.3878C5.6113 25.3169 5.9831 29.2575 6.48944 32.0411V32.0436Z" fill="#5C4DA0"/>
<path d="M9.71826 32.1781C9.41494 32.7872 8.90861 33.4525 8.17723 33.3963C7.41895 33.3376 6.84167 32.6331 6.48699 32.0436C6.7634 33.5602 7.08139 34.7343 7.08139 34.7343C7.08139 34.7343 7.84212 36.4318 8.52213 36.9333C8.93796 36.6716 9.28041 36.06 9.5348 35.2431L9.71826 32.1781Z" fill="#3E3D98"/>
<path d="M8.42917 36.5248C8.49277 36.5248 8.54659 36.4759 8.54903 36.4123C8.66644 34.612 8.06226 28.7781 8.03536 28.5286C8.02802 28.4625 7.96931 28.4136 7.90327 28.4209C7.83722 28.4283 7.7883 28.487 7.79564 28.553C7.80298 28.6142 8.42428 34.6169 8.30932 36.3952C8.30443 36.4612 8.35579 36.5199 8.42184 36.5248H8.42917V36.5248Z" fill="white"/>
<path d="M7.93507 40.0129H10.4619C10.4619 40.0129 12.7636 39.8417 12.0445 37.8995C11.3253 35.9549 12.2499 35.495 13.3605 34.2157C14.471 32.9364 16.1343 30.2262 14.2851 29.392C12.4358 28.5579 10.5866 30.5686 9.84301 32.7163C9.61307 33.3791 9.53725 33.998 9.45653 34.5973C9.4125 34.9202 9.36847 35.2357 9.29508 35.5488C9.16789 36.1016 8.95508 36.6495 8.52457 37.2073C8.51234 37.2219 8.50256 37.2366 8.49033 37.2513C7.31866 38.7312 7.93507 40.0153 7.93507 40.0153V40.0129Z" fill="#5C4DA0"/>
<path d="M7.93507 40.0129H10.1414C10.5524 38.0536 9.84056 36.4441 9.29264 35.5464C9.16544 36.0992 8.95263 36.6471 8.52213 37.2048C8.50989 37.2195 8.50011 37.2342 8.48788 37.2488C7.31621 38.7287 7.93262 40.0129 7.93262 40.0129H7.93507Z" fill="#3E3D98"/>
<path d="M9.74516 39.9615C9.81121 39.9615 9.86502 39.9102 9.86502 39.8441C9.98488 35.4974 12.8933 31.7329 12.9226 31.6938C12.9642 31.64 12.9544 31.5642 12.903 31.525C12.8517 31.4834 12.7734 31.4932 12.7343 31.5446C12.7049 31.5837 9.75006 35.4094 9.62531 39.8368C9.62531 39.9028 9.67667 39.9591 9.74272 39.9615H9.74516V39.9615Z" fill="white"/>
<path d="M2.07672 34.2133C3.9871 35.769 4.97532 35.9377 4.72826 37.425C4.64754 37.9166 4.57905 38.3936 4.57905 38.8192C4.57905 39.6802 4.86769 40.3236 5.89993 40.4263C7.44096 40.5804 8.73493 40.0129 8.73493 40.0129C8.73493 40.0129 9.1948 38.9146 9.26329 37.6182C9.32933 36.4123 9.05782 35.0376 7.77118 34.2133C5.09762 32.5034 5.59173 25.7449 2.07672 26.3809C-1.43829 27.0169 0.166333 32.6576 2.07672 34.2133V34.2133Z" fill="#5C4DA0"/>
<path d="M4.57905 38.8192C4.57905 39.6802 4.86769 40.3236 5.89993 40.4263C7.44096 40.5804 8.73493 40.0129 8.73493 40.0129C8.73493 40.0129 9.1948 38.9146 9.26329 37.6182C8.66644 37.99 6.81476 39.0002 4.57661 38.8192H4.57905Z" fill="#3E3D98"/>
<path d="M7.24038 39.7365C7.30153 39.7365 7.3529 39.6925 7.36024 39.6289C7.36513 39.5946 7.74183 36.2141 5.53547 34.1619C3.40004 32.1757 2.55859 28.92 2.54881 28.8882C2.53169 28.8221 2.46564 28.783 2.40205 28.8001C2.33845 28.8172 2.29686 28.8833 2.31399 28.9469C2.32132 28.9811 3.1799 32.3029 5.36913 34.338C7.48744 36.3071 7.12297 39.5653 7.11808 39.5995C7.11074 39.6656 7.15722 39.7267 7.22326 39.734C7.22815 39.734 7.23304 39.734 7.23794 39.734L7.24038 39.7365Z" fill="white"/>
<path d="M4.81877 48.2121L4.20236 42.9409L4.173 42.6962L4.08739 41.9722L4.06048 41.7276L3.97732 41.0231L3.94797 40.7761L3.77429 39.2962H12.5826L12.4089 40.7761L12.3796 41.0231L12.2964 41.7276L12.2671 41.9722L12.1839 42.6962L12.1545 42.9409L11.5357 48.2121H4.81877Z" fill="#FBB416"/>
<path d="M3.94796 40.7761L3.97732 41.0231H12.3796L12.4089 40.7761H3.94796Z" fill="#F8A81B"/>
<path d="M4.06048 41.7276L4.08739 41.9722H12.2671L12.2964 41.7276H4.06048Z" fill="#F8A81B"/>
<path d="M4.173 42.6962L4.20236 42.9409H12.1545L12.1839 42.6962H4.173Z" fill="#F8A81B"/>
<path d="M17.8441 39.7781L17.9077 40.5192L17.942 40.8984L17.9738 41.258L18.0178 41.7643L18.0374 42.0016L18.1303 43.0632L18.233 44.2153L18.2355 44.2691L18.2991 45.0004L18.3309 45.3576L18.3505 45.59L18.4532 46.7665L18.5804 48.2268H22.6384L22.6678 47.8917L22.7901 46.473L22.8659 45.6169L22.8879 45.3576L22.9197 45.0004L22.9882 44.2153L22.9907 44.1908L23.064 43.3371L23.1815 42.0016L23.1888 41.9062L23.245 41.258L23.2622 41.0574L23.2768 40.8984L23.3747 39.7781H17.8441Z" fill="#4A429A"/>
<path d="M17.942 40.8984L17.9738 41.258H23.245L23.2622 41.0574L23.2769 40.8984H17.942Z" fill="#3E3D98"/>
<path d="M18.2991 45.0004L18.3309 45.3576H22.8879L22.9197 45.0004H18.2991Z" fill="#3E3D98"/>
<path d="M18.0374 42.0016L18.1303 43.0632L18.233 44.2153H22.9882L22.9907 44.1908L23.064 43.3371L23.179 42.0016H18.0374Z" fill="white"/>
<path d="M23.6584 38.6994H17.5604V39.7805H23.6584V38.6994Z" fill="#4A429A"/>
<path d="M18.0202 38.6994H23.201V38.1441C23.201 37.9435 23.0396 37.7821 22.839 37.7821H18.3823C18.1817 37.7821 18.0202 37.9435 18.0202 38.1441V38.6994V38.6994Z" fill="#3E3D98"/>
<path d="M138.475 13.1428H147.508L148.829 4.10941H139.798L138.475 13.1428Z" fill="#8C5D55"/>
<path d="M148.829 4.10941L150.081 13.1428H147.508L148.829 4.10941Z" fill="#3D2027"/>
<path d="M146.958 12.4994L148.093 4.75272H140.346L139.213 12.4994H146.958Z" fill="#DFDBC8"/>
<path d="M146.848 12.3698L147.944 4.88237H140.456L139.36 12.3698H146.848Z" fill="white"/>
<path d="M141.129 5.7972L140.302 11.4525H146.18L147.007 5.7972H141.129Z" fill="#E5C09F"/>
<path d="M145.649 9.10217C146.051 8.1324 145.59 7.0206 144.621 6.61891C143.651 6.21722 142.539 6.67774 142.137 7.64751C141.736 8.61728 142.196 9.72908 143.166 10.1308C144.136 10.5325 145.247 10.0719 145.649 9.10217Z" fill="#F2D6BA"/>
<path d="M144.076 8.52213C144.076 8.52213 142.885 7.12542 140.923 7.22081L140.304 11.455L144.079 8.52457L144.076 8.52213Z" fill="#00443C"/>
<path d="M146.735 7.65866C146.735 7.65866 145.052 7.31621 143.303 8.62731C141.554 9.9384 140.302 11.455 140.302 11.455H146.18L146.735 7.65866Z" fill="#006D61"/>
<g opacity="0.06">
<path d="M115.721 16.9073H153.425L153.919 15.1877H115.156L115.721 16.9073Z" fill="black"/>
</g>
<path d="M115.125 15.1852L153.929 15.1852V13.1403L115.125 13.1403V15.1852Z" fill="#6E4945"/>
<path d="M151.994 15.1877L151.165 16.9219H149.213L148.658 15.1877H151.994Z" fill="#3D2027"/>
<path d="M117.661 15.1877L118.49 16.9219H120.442L120.998 15.1877H117.661Z" fill="#3D2027"/>
<path d="M119.623 10.9462H119.337V10.5181L130.202 10.5328C130.562 10.5328 130.889 10.6796 131.124 10.9168C131.359 11.1517 131.506 11.4794 131.506 11.839C131.506 12.5606 130.921 13.1428 130.2 13.1428L119.334 13.1281V12.7563H119.623V10.9486V10.9462Z" fill="#4A429A"/>
<path d="M119.547 10.9462V12.7538L129.515 12.7661C130.002 12.7661 130.395 12.3625 130.398 11.8635C130.398 11.614 130.3 11.3865 130.141 11.2226C129.982 11.0587 129.762 10.9584 129.517 10.956L119.547 10.9437V10.9462Z" fill="white"/>
<path d="M119.547 11.4036V11.68L129.258 11.6922C129.334 11.6922 129.395 11.6311 129.395 11.5553C129.395 11.4794 129.334 11.4158 129.258 11.4158L119.547 11.4036V11.4036Z" fill="#E5C09F"/>
<path d="M119.547 12.0836V12.36L129.258 12.3722C129.334 12.3722 129.395 12.3111 129.395 12.2353C129.395 12.1594 129.334 12.0958 129.258 12.0958L119.547 12.0836V12.0836Z" fill="#E5C09F"/>
<path d="M120.594 8.33867H120.308V7.91061L131.173 7.92528C131.533 7.92528 131.861 8.07205 132.095 8.30932C132.33 8.54659 132.477 8.87191 132.477 9.23149C132.477 9.95308 131.892 10.5352 131.171 10.5352L120.305 10.5206V10.1488H120.594V8.34112V8.33867Z" fill="#FBB416"/>
<path d="M120.518 8.33622V10.1439L130.486 10.1561C130.973 10.1561 131.366 9.7525 131.369 9.2535C131.369 9.004 131.271 8.77652 131.112 8.61263C130.953 8.44874 130.733 8.34845 130.488 8.34601L120.518 8.33378V8.33622Z" fill="white"/>
<path d="M120.518 8.79609V9.07249L130.229 9.08472C130.305 9.08472 130.366 9.02357 130.366 8.94774C130.366 8.87191 130.305 8.80832 130.229 8.80832L120.518 8.79609Z" fill="#E5C09F"/>
<path d="M120.518 9.4761V9.7525L130.229 9.76473C130.305 9.76473 130.366 9.70358 130.366 9.62775C130.366 9.55192 130.305 9.48833 130.229 9.48833L120.518 9.4761Z" fill="#E5C09F"/>
<path d="M118.698 5.72626H118.412V5.2982L129.278 5.31287C129.637 5.31287 129.965 5.45964 130.2 5.69691C130.435 5.93173 130.581 6.25951 130.581 6.61908C130.581 7.34067 129.997 7.92284 129.275 7.92284L118.41 7.90816V7.53636H118.698V5.72871V5.72626Z" fill="#5C4DA0"/>
<path d="M118.625 5.72626V7.53391L128.593 7.54614C129.079 7.54614 129.473 7.14254 129.476 6.64354C129.476 6.39404 129.378 6.16655 129.219 6.00267C129.06 5.83878 128.84 5.73849 128.595 5.73605L118.625 5.72381V5.72626Z" fill="white"/>
<path d="M118.625 6.18368V6.46008L128.336 6.47231C128.412 6.47231 128.473 6.41116 128.473 6.33533C128.473 6.25951 128.412 6.19591 128.336 6.19591L118.625 6.18368Z" fill="#E5C09F"/>
<path d="M118.622 6.86369V7.14009L128.333 7.15232C128.409 7.15232 128.47 7.09117 128.47 7.01534C128.47 6.93951 128.409 6.87592 128.333 6.87592L118.622 6.86369Z" fill="#E5C09F"/>
<path d="M110.571 53.0933L122.482 49.6376L123.868 54.4158C124.205 55.5763 123.536 56.7917 122.376 57.1284L114.673 59.3634C113.512 59.7001 112.297 59.0314 111.96 57.8709L110.574 53.0926L110.571 53.0933Z" fill="#FBB416"/>
<path d="M112.994 53.9604L121.103 51.6684" stroke="white" stroke-linecap="round" stroke-linejoin="round"/>
<path d="M120.276 53.2975L121.431 52.9722" stroke="white" stroke-linecap="round" stroke-linejoin="round"/>
<path d="M113.319 55.2642L118.962 53.6693" stroke="white" stroke-linecap="round" stroke-linejoin="round"/>
<path d="M113.85 56.8125L117.272 55.7852" stroke="white" stroke-linecap="round" stroke-linejoin="round"/>
<path d="M122.308 47.4687L109.557 51.1685L110.15 53.2146L122.902 49.5149L122.308 47.4687Z" fill="#F8A81B"/>
<path d="M110.152 53.2046C110.411 52.4169 110.678 51.5437 110.937 50.7561L111.876 50.4821C111.551 51.3113 111.333 52.0598 111.12 52.9233C111.12 52.9233 110.435 53.1263 110.154 53.2021L110.152 53.2046Z" fill="white"/>
<path d="M112.395 52.549C112.654 51.7614 112.916 50.8979 113.175 50.1103L114.102 49.8388C113.777 50.668 113.544 51.4141 113.332 52.28L112.395 52.549V52.549Z" fill="white"/>
<path d="M114.973 51.8103C115.232 51.0227 115.499 50.147 115.758 49.3593L116.761 49.0634C116.438 49.8926 116.179 50.6509 115.966 51.5143L114.973 51.8103Z" fill="white"/>
<path d="M117.539 51.0643C117.798 50.2766 118.07 49.3863 118.329 48.5986C118.329 48.5986 119.256 48.3589 119.263 48.3344C118.938 49.1637 118.686 49.9244 118.473 50.7879C118.473 50.7879 117.541 51.052 117.541 51.0618L117.539 51.0643Z" fill="white"/>
<path d="M120.019 50.3402C120.278 49.5526 120.547 48.6793 120.807 47.8917L121.739 47.6202L120.944 50.0712L120.019 50.3427V50.3402Z" fill="white"/>
<path d="M119.302 41.9421L108.365 49.4701L109.573 51.2251L120.51 43.6971L119.302 41.9421Z" fill="#F8A81B"/>
<path d="M109.572 51.2233C109.572 50.394 109.547 49.4817 109.545 48.6524L110.35 48.0972C110.303 48.9851 110.33 49.7654 110.401 50.6533C110.401 50.6533 109.817 51.0618 109.572 51.2233Z" fill="white"/>
<path d="M111.495 49.895C111.495 49.0658 111.47 48.1632 111.468 47.334L112.263 46.7836C112.216 47.6716 112.231 48.4543 112.299 49.3422L111.495 49.895V49.895Z" fill="white"/>
<path d="M113.708 48.3809C113.708 47.5517 113.684 46.6369 113.681 45.8076L114.54 45.2108C114.493 46.0987 114.486 46.901 114.557 47.7865L113.706 48.3809H113.708Z" fill="white"/>
<path d="M115.91 46.8644C115.91 46.0351 115.885 45.1056 115.883 44.2764C115.883 44.2764 116.685 43.7554 116.685 43.7309C116.639 44.6189 116.636 45.4212 116.707 46.3091C116.707 46.3091 115.905 46.8521 115.91 46.8644V46.8644Z" fill="white"/>
<path d="M118.038 45.3967C118.038 44.5675 118.016 43.6551 118.013 42.8234L118.813 42.2706L118.83 44.8463L118.038 45.3943V45.3967Z" fill="white"/>
<path d="M112.921 58.1065C113.368 58.5908 114.082 58.811 114.726 58.6642" stroke="white" stroke-linecap="round" stroke-linejoin="round"/>
<path d="M116.061 58.1285L119.126 57.2357" stroke="white" stroke-linecap="round" stroke-linejoin="round"/>
<path d="M29.2771 62.3064H44.4256C45.2133 62.3064 45.8517 62.9448 45.8517 63.7325V73.9546C45.8517 75.0774 44.9417 75.9873 43.819 75.9873H29.8837C28.761 75.9873 27.851 75.0774 27.851 73.9546V63.7325C27.851 62.9448 28.4894 62.3064 29.2771 62.3064V62.3064Z" fill="white"/>
<path d="M29.2771 62.3064H44.4256C45.2133 62.3064 45.8517 62.9448 45.8517 63.7325V63.9404H27.851V63.7325C27.851 62.9448 28.4894 62.3064 29.2771 62.3064Z" fill="#493293"/>
<path d="M29.0667 63.1234C29.0667 63.2408 28.9713 63.3362 28.8539 63.3362C28.7365 63.3362 28.6411 63.2408 28.6411 63.1234C28.6411 63.006 28.7365 62.9106 28.8539 62.9106C28.9713 62.9106 29.0667 63.006 29.0667 63.1234Z" fill="#010101"/>
<path d="M29.9277 63.3362C30.0453 63.3362 30.1405 63.2409 30.1405 63.1234C30.1405 63.0059 30.0453 62.9106 29.9277 62.9106C29.8102 62.9106 29.7149 63.0059 29.7149 63.1234C29.7149 63.2409 29.8102 63.3362 29.9277 63.3362Z" fill="white"/>
<path d="M31.0921 63.3362C31.2096 63.3362 31.3049 63.2409 31.3049 63.1234C31.3049 63.0059 31.2096 62.9106 31.0921 62.9106C30.9745 62.9106 30.8793 63.0059 30.8793 63.1234C30.8793 63.2409 30.9745 63.3362 31.0921 63.3362Z" fill="#C7B7DA"/>
<path d="M29.6758 73.8495H28.624V74.9013H29.6758V73.8495Z" fill="#493293"/>
<path d="M29.0202 74.5539V74.1944" stroke="white" stroke-width="0.64" stroke-miterlimit="10"/>
<path d="M29.2771 74.5539V74.1944" stroke="white" stroke-width="0.64" stroke-miterlimit="10"/>
<path d="M44.4819 74.1185H30.006V74.6982H44.4819V74.1185Z" fill="#E5DBED"/>
<path d="M36.0209 74.1185H30.006V74.6982H36.0209V74.1185Z" fill="#493293"/>
<path d="M45.4652 65.5768V70.2929" stroke="#9A89C1" stroke-linecap="round" stroke-linejoin="round"/>
<path d="M45.4652 64.6106V65.0803" stroke="#9A89C1" stroke-linecap="round" stroke-linejoin="round"/>
<path d="M30.5441 75.6791H36.1995" stroke="#9A89C1" stroke-linecap="round" stroke-linejoin="round"/>
<path d="M38.0976 71.7833C39.4793 71.2183 40.1414 69.6402 39.5764 68.2585C39.0114 66.8767 37.4333 66.2147 36.0516 66.7796C34.6698 67.3446 34.0077 68.9228 34.5727 70.3045C35.1377 71.6862 36.7159 72.3483 38.0976 71.7833Z" fill="#493293"/>
<path d="M36.2484 70.3247V68.2406L38.1979 69.0918L36.2484 70.3247Z" fill="white"/>
<path d="M35.1477 68.1428C35.4705 67.4138 36.2802 66.9344 37.0727 67.0004" stroke="#9A89C1" stroke-linecap="round" stroke-linejoin="round"/>
<g opacity="0.06">
<path d="M77.4354 99.3596C101.812 99.3596 121.572 97.4058 121.572 94.9958C121.572 92.5857 101.812 90.632 77.4354 90.632C53.0592 90.632 33.2984 92.5857 33.2984 94.9958C33.2984 97.4058 53.0592 99.3596 77.4354 99.3596Z" fill="black"/>
</g>
<path d="M52.6933 88.5137C53.2144 89.0347 53.7794 89.5312 54.3934 90.0009C57.4607 92.3565 61.7022 94.0442 67.3356 94.6093C96.143 97.4932 105.663 83.9787 107.989 63.187C109.026 53.9213 106.6 47.8061 103.591 43.8752C103.276 43.4643 102.955 43.0778 102.632 42.7134C102.449 42.5079 102.263 42.3073 102.07 42.1116C98.1855 38.1441 92.5766 36.2753 87.0656 37.1828C82.7336 37.8946 78.7979 40.2086 75.6057 44.8341C70.4983 52.2286 75.3293 58.5859 60.736 59.0116C49.5648 59.3369 42.4859 78.3307 52.6958 88.5161L52.6933 88.5137Z" fill="#FBB416"/>
<path d="M96.7961 43.616C96.7961 43.616 100.203 50.9053 96.2702 64.2853C92.3369 77.6653 87.1268 76.6111 83.761 76.6111C77.8806 76.6111 65.9731 71.0732 63.6469 66.7094C61.3207 62.3456 65.7114 62.0863 73.9326 61.4405C82.1563 60.7948 88.2911 40.7296 96.7961 43.616V43.616Z" fill="#F8A81B"/>
<path d="M89.4089 82.2248C89.4725 82.2248 89.5386 82.2004 89.5875 82.149C89.6805 82.0511 89.678 81.897 89.5777 81.8016C86.6375 79.0058 83.8294 77.3596 81.99 76.4692C79.9916 75.503 78.7025 75.2021 78.6487 75.1899C78.5166 75.1606 78.3845 75.2413 78.3551 75.3734C78.3258 75.5055 78.4065 75.6375 78.5386 75.6669C78.5973 75.6816 83.7169 76.9046 89.2377 82.1563C89.2842 82.2004 89.3453 82.2248 89.4065 82.2248H89.4089Z" fill="#F8A81B"/>
<path d="M88.4378 78.9495C88.5161 78.9495 88.5944 78.9128 88.6409 78.8419C88.7167 78.7294 88.6873 78.5777 88.5748 78.5019C88.4599 78.4236 85.7227 76.6086 81.4861 76.1463C81.3516 76.1316 81.2317 76.2295 81.217 76.364C81.2024 76.4986 81.3002 76.6184 81.4347 76.6331C85.5515 77.0832 88.2764 78.8884 88.3033 78.9079C88.3449 78.9373 88.3938 78.9495 88.4403 78.9495H88.4378Z" fill="#F8A81B"/>
<path d="M97.322 58.7058C97.4443 58.7058 97.5495 58.6153 97.5642 58.4905C97.9188 55.6555 99.1394 53.4883 100.098 52.1699C101.143 50.7365 102.116 49.966 102.126 49.9586C102.231 49.8755 102.251 49.7214 102.168 49.6137C102.085 49.5061 101.93 49.489 101.823 49.5722C101.781 49.604 100.795 50.3843 99.7118 51.8666C98.7138 53.2339 97.4467 55.4819 97.0749 58.4294C97.0578 58.5639 97.1532 58.6862 97.2878 58.7034C97.2975 58.7034 97.3073 58.7034 97.3195 58.7034L97.322 58.7058Z" fill="#F8A81B"/>
<path d="M52.6933 88.5137C53.2144 89.0347 53.7794 89.5312 54.3934 90.0009C57.9377 92.129 62.2648 93.5306 67.0298 94.0785C68.5072 94.2497 69.9993 94.3329 71.4914 94.3329C75.6057 94.3329 79.7298 93.692 83.6166 92.4323C93.7287 89.157 101.025 82.149 104.161 72.7022C105.881 67.5215 106.725 62.485 106.671 57.7298C106.629 53.9213 106.01 50.284 104.839 46.9182C104.447 45.7954 104.022 44.7827 103.591 43.8752C103.276 43.4643 102.955 43.0778 102.632 42.7134C102.449 42.5079 102.263 42.3073 102.07 42.1116C102.838 43.4276 103.66 45.0983 104.362 47.1163C106.169 52.3191 107.517 60.9537 103.672 72.5384C100.59 81.8261 93.4107 88.7167 83.4601 91.9406C72.8881 95.3651 60.6602 93.9758 53.0334 88.4868C52.9282 88.4109 52.7863 88.4256 52.6982 88.5161L52.6933 88.5137Z" fill="#F8A81B"/>
<path d="M96.7178 93.2322C96.7569 93.4034 96.8034 93.5722 96.8572 93.736C97.2168 94.8392 97.8772 95.7198 98.775 96.0843C102.175 97.4639 105.372 96.9869 111.879 96.8352C118.383 96.6836 123.214 94.9615 122.612 89.6046C122.563 89.1815 122.482 88.7876 122.372 88.4183C122.228 87.934 122.032 87.4961 121.8 87.0998C121.528 86.6326 121.205 86.2217 120.853 85.8646C119.028 84.0105 116.279 83.4038 113.816 84.2477C111.384 85.0818 107.087 85.4854 102.613 85.5735C97.8063 85.6713 96.0084 90.1623 96.7178 93.2273V93.2322Z" fill="#FBB416"/>
<path d="M96.7178 93.2322C96.7569 93.4034 96.8034 93.5722 96.8572 93.736C98.0093 94.7414 100.181 95.3774 103.33 95.6269C104.318 95.7076 105.406 95.7443 106.575 95.7443C109.283 95.7443 112.439 95.5339 115.885 95.1205C118.801 94.7707 120.773 93.7434 121.748 92.0678C122.475 90.8203 122.512 89.4579 122.372 88.4207C122.228 87.9364 122.032 87.4986 121.8 87.1023C122.052 87.8777 122.607 90.0792 121.523 91.9406C120.591 93.5428 118.684 94.5261 115.853 94.8661C105.629 96.0941 98.6698 95.4972 96.7178 93.2322V93.2322Z" fill="#F8A81B"/>
<path d="M116.157 86.6057C118.155 86.7672 119.633 88.5895 119.305 90.5684C119.298 90.6075 119.293 90.6442 119.283 90.6834C118.852 92.8383 115.954 92.7747 107.906 92.8506C101.603 92.9093 98.3616 90.654 100.04 87.8679C101.373 85.6518 111.901 86.2633 116.157 86.6057Z" fill="#F8A81B"/>
<path d="M100.954 88.2373C103.887 91.8893 115.849 92.0947 117.419 89.36C118.185 88.0294 117.972 86.322 117.556 84.9228C117.512 84.7761 117.465 84.6318 117.419 84.4923C116.988 83.2326 116.448 82.3129 116.448 82.3129C116.448 82.3129 116.497 83.6142 112.084 83.147C111.58 83.0932 111.005 83.0712 110.391 83.0785C110.276 83.0785 110.161 83.0809 110.044 83.0858C105.286 83.2277 98.4227 85.0843 100.957 88.2397L100.954 88.2373Z" fill="#28100C"/>
<path d="M110.565 86.0603C111.255 86.8308 112.456 87.1219 114.034 86.8993C114.07 86.8944 114.105 86.8895 114.139 86.8846C116.127 86.5788 117.096 85.6322 117.553 84.9228C117.509 84.7761 117.463 84.6318 117.416 84.4923C117.079 85.1454 116.189 86.2584 113.985 86.5666C112.524 86.7721 111.426 86.5177 110.815 85.8352C110.264 85.2188 110.117 84.2673 110.386 83.076C110.272 83.076 110.157 83.0785 110.039 83.0834C109.768 84.3505 109.949 85.3754 110.563 86.0603H110.565Z" fill="#FBAB47"/>
<path d="M102.613 85.5784C102.613 85.5784 99.8048 85.3705 99.4721 83.9542C99.1394 82.5379 105.582 83.7805 106.292 80.8599C107.004 77.9417 104.154 75.6131 103.229 76.4667C102.133 77.4794 104.533 77.9099 104.663 79.4118C104.77 80.6593 103.997 81.809 101.598 81.9802C99.1981 82.1514 98.1267 82.5232 98.1365 83.6386C98.1488 84.8519 100.091 86.1043 101.272 86.1826C102.454 86.2608 102.613 85.5784 102.613 85.5784V85.5784Z" fill="#28100C"/>
<path d="M114.934 81.2366C114.934 81.2366 115.768 80.153 117.123 79.4314C117.321 79.3262 117.556 79.4852 117.531 79.7078L117.275 82.193C117.275 82.193 115.328 82.3593 114.931 81.239L114.934 81.2366Z" fill="#28100C"/>
<path d="M116.8 81.8921C116.91 81.3295 116.937 80.7376 117.067 80.0723C117.067 80.0723 115.602 80.9455 115.516 81.4249C115.516 81.4249 116.323 82.0365 116.8 81.8921Z" fill="#5A4C54"/>
<path d="M112.392 81.3369C112.392 81.3369 111.247 80.6471 109.748 80.4587C109.503 80.4269 109.322 80.6862 109.433 80.9088L110.457 82.9537C110.457 82.9537 112.431 82.5257 112.39 81.3369H112.392Z" fill="#28100C"/>
<path d="M110.893 82.626C110.585 82.1416 110.345 81.5986 109.983 81.0287C109.983 81.0287 111.663 81.31 111.92 81.7258C111.92 81.7258 111.389 82.5893 110.893 82.6284V82.626Z" fill="#5A4C54"/>
<path d="M116.022 81.2806C116.022 81.2806 117.757 81.5448 117.627 83.5775C117.497 85.6102 115.518 85.8254 115.518 85.8254C115.518 85.8254 115.166 86.4785 113.943 86.7427C113.16 86.9115 111.996 86.8577 111.7 86.2829C111.7 86.2829 110.002 85.6616 110.022 84.1474C110.044 82.4694 112.064 80.4098 116.022 81.2806V81.2806Z" fill="#28100C"/>
<path d="M117.783 86.0847C117.783 86.0847 117.076 88.9686 116.482 89.5655C115.89 90.1599 115.247 90.4877 114.42 90.5879C113.087 90.7494 113.332 91.6398 113.73 91.9455C114.19 92.3002 115.007 92.0972 116.235 92.0972C117.294 92.0972 118.292 91.8868 118.652 91.1897C119.009 90.4925 118.987 88.433 118.605 87.2735C118.37 86.5593 118.04 86.185 117.786 86.0872L117.783 86.0847Z" fill="#28100C"/>
<path d="M108.823 86.2755C108.823 86.2755 109.53 89.1594 110.125 89.7563C110.717 90.3507 111.365 90.6467 112.187 90.7787C113.192 90.9377 113.099 91.8868 112.877 92.1363C112.488 92.5693 111.6 92.288 110.372 92.288C109.313 92.288 108.06 91.8648 107.701 91.1677C107.344 90.4705 107.62 88.6237 108.002 87.4643C108.236 86.7501 108.567 86.3758 108.821 86.278L108.823 86.2755Z" fill="#28100C"/>
<path d="M102.901 85.7007C102.901 85.7007 101.035 85.2531 100.433 86.6596C99.4868 88.8708 100.243 90.1354 102.765 90.4877C105.286 90.8399 108.151 91.3169 105.986 89.5215C103.819 87.7285 102.901 85.7007 102.901 85.7007Z" fill="#28100C"/>
<path d="M112.945 84.5633C112.945 84.5633 113.698 84.4825 113.899 84.5755C114.237 84.7296 113.694 85.3582 113.349 85.412C113.004 85.4659 112.669 85.0623 112.674 84.7981C112.678 84.5364 112.945 84.5633 112.945 84.5633V84.5633Z" fill="#5A4C54"/>
<path d="M112.559 83.9835C112.595 83.9615 112.634 84.008 112.608 84.0398C112.458 84.2184 112.182 84.4532 111.808 84.3749C111.499 84.3089 111.382 84.0936 111.34 83.9053C111.331 83.8637 111.389 83.8392 111.409 83.8784C111.49 84.0178 111.644 84.1597 111.945 84.1792C112.172 84.1939 112.404 84.0814 112.559 83.986V83.9835Z" fill="#5A4C54"/>
<path d="M115.477 83.8294C115.509 83.8001 115.555 83.8392 115.535 83.8759C115.42 84.0789 115.193 84.3602 114.811 84.3529C114.496 84.3456 114.342 84.1548 114.266 83.9762C114.249 83.9371 114.3 83.9028 114.33 83.9371C114.432 84.0594 114.611 84.1719 114.912 84.1352C115.137 84.1083 115.347 83.9542 115.479 83.8319L115.477 83.8294Z" fill="#5A4C54"/>
<path d="M70.7894 74.9477C70.7796 71.6504 71.6333 69.4367 71.6333 69.4367C77.1737 69.0943 86.3293 69.4734 86.3293 69.4734C86.3416 69.5052 86.3538 69.537 86.366 69.5688C86.366 69.5688 86.0676 72.4283 85.5417 74.8328C80.1505 78.0249 75.7109 77.9271 70.7919 74.9453L70.7894 74.9477Z" fill="#1E1E1E"/>
<path d="M100.027 26.9239C100.027 26.9239 99.5235 26.217 99.3302 25.5272C99.137 24.8374 98.9658 24.1085 98.8532 23.6805C98.7211 23.1668 99.2177 23.2426 99.4868 23.6462C99.8953 24.2577 99.8879 24.6442 99.8879 24.6442C99.8879 24.6442 99.724 21.7994 99.9809 21.0778C100.216 20.4198 100.382 21.9829 100.595 23.2695C100.595 23.2695 100.915 20.4957 101.343 20.2877C101.906 20.0162 101.507 23.3771 101.507 23.3771C101.507 23.3771 102.17 20.9433 102.449 21.0632C102.762 21.1977 102.388 23.771 102.388 23.771C102.388 23.771 102.99 22.1394 103.149 22.2837C103.459 22.5724 102.909 26.2342 101.669 27.3863C101.669 27.3863 100.292 27.2395 100.027 26.9215V26.9239Z" fill="#F9AE83"/>
<path d="M98.0705 32.1341C99.0611 29.233 99.905 26.7992 99.905 26.7992C100.595 26.4323 101.319 26.6427 102.043 26.8579C101.478 32.0142 100.162 35.9475 98.8263 38.873C97.0016 41.9918 89.4138 47.9211 89.4138 47.9211C87.3078 46.95 88.4305 43.8777 88.4305 43.8777C92.5252 40.2233 96.3778 36.9724 96.4365 36.9211C96.6028 36.4343 97.2266 34.6022 98.0705 32.1316V32.1341Z" fill="#5D4EA1"/>
<path d="M77.2299 28.5188C77.2299 28.5188 76.0583 29.2918 76.479 31.388C76.8973 33.4843 77.7094 33.7094 77.7094 33.7094C77.7094 33.7094 78.9373 29.0667 77.2299 28.5188Z" fill="#28120E"/>
<path d="M82.0732 38.3104L81.99 40.9644L81.9509 42.1801C83.3745 43.4399 85.9844 42.1067 85.9844 42.1067L86.5911 38.215C85.9282 37.6793 84.0789 37.9142 82.9635 38.1221C82.4376 38.2199 82.0732 38.3104 82.0732 38.3104V38.3104Z" fill="#F9AE83"/>
<path d="M82.0732 38.3104L81.99 40.9644C83.8123 40.7076 85.527 38.3618 85.527 38.3618L82.9635 38.1196C82.4376 38.2175 82.0732 38.308 82.0732 38.308V38.3104Z" fill="#F58A69"/>
<path d="M77.4672 29.5877C77.4672 29.5877 74.6077 28.2571 75.4443 25.9088C76.2833 23.5606 79.7054 24.6393 82.7825 24.7567C87.7383 24.9451 89.2891 27.5232 89.1643 30.2066C89.0396 32.8899 89.0665 36.4881 87.8508 37.831C86.6351 39.1739 85.8034 37.2757 85.1748 35.5977C84.5461 33.9197 80.6618 28.7805 77.4672 29.5877V29.5877Z" fill="#28120E"/>
<path d="M77.2079 31.8724C77.2079 31.9629 77.2104 32.0558 77.2128 32.1488C77.2642 33.8145 77.5504 35.8399 77.8341 37.4885C78.135 39.2375 79.8203 40.392 81.5595 40.0423C83.6533 39.6191 86.2339 38.9782 87.4129 38.2028C87.7701 37.968 87.9976 37.7209 88.044 37.4641C88.1492 36.8624 88.2079 36.0429 88.2348 35.1525C88.318 32.4496 88.1199 29.0789 88.1199 29.0789C85.6028 25.9529 78.5899 27.1735 77.5235 29.4605C77.2788 29.984 77.1957 30.8523 77.2104 31.8773L77.2079 31.8724Z" fill="#F9AE83"/>
<path d="M78.7587 36.7131C78.7587 36.7131 78.7905 36.7939 78.8615 36.9088C78.9715 37.0874 79.177 37.3516 79.5048 37.5277C79.813 37.694 80.2264 37.7796 80.7694 37.6426C81.2513 37.5203 81.5619 37.2855 81.7601 37.0165C82.0389 36.6373 82.0952 36.1848 82.0952 35.879C82.0952 35.6662 82.0658 35.5243 82.0658 35.5243C80.7718 36.5028 78.7587 36.7156 78.7587 36.7156V36.7131Z" fill="#921A1D"/>
<path d="M79.5048 37.5277C79.813 37.694 80.2264 37.7796 80.7694 37.6426C81.2513 37.5203 81.5619 37.2855 81.7601 37.0165C81.4592 36.8941 80.9773 36.8134 80.4269 36.9895C79.9597 37.1388 79.7249 37.3491 79.5048 37.5277V37.5277Z" fill="#F15D67"/>
<path d="M78.7587 36.7131C78.7587 36.7131 78.7905 36.7939 78.8615 36.9088C80.3046 37.0165 81.6084 36.219 82.0952 35.879C82.0952 35.6662 82.0658 35.5243 82.0658 35.5243C80.7718 36.5028 78.7587 36.7156 78.7587 36.7156V36.7131Z" fill="white"/>
<path d="M81.3662 33.3816C81.3662 33.7338 81.5228 34.0176 81.716 34.0176C81.9093 34.0176 82.0658 33.7338 82.0658 33.3816C82.0658 33.0294 81.9093 32.7456 81.716 32.7456C81.5228 32.7456 81.3662 33.0294 81.3662 33.3816Z" fill="#28120E"/>
<path d="M77.7876 33.3816C77.7876 33.7338 77.9442 34.0176 78.1374 34.0176C78.3307 34.0176 78.4872 33.7338 78.4872 33.3816C78.4872 33.0294 78.3307 32.7456 78.1374 32.7456C77.9442 32.7456 77.7876 33.0294 77.7876 33.3816Z" fill="#28120E"/>
<path d="M88.247 32.6722C88.247 32.6722 87.1267 31.9433 86.1826 33.2446H85.4487C85.4487 33.2446 85.4903 31.7378 85.1332 30.9184C84.7761 30.1014 83.372 30.121 83.1617 29.1572C83.1617 29.1572 79.8448 30.4781 77.4672 29.5853C75.0896 28.6949 82.2199 24.7323 85.6591 26.6598C89.0983 28.5897 88.7803 30.1014 88.247 32.6698V32.6722Z" fill="#28120E"/>
<path d="M83.1935 32.567C83.1935 32.567 82.9195 31.8503 82.2909 31.6204C81.7087 31.4076 81.2708 31.525 81.0458 31.6229C80.948 31.6644 80.899 31.7745 80.926 31.8773C80.9602 31.9996 81.0898 32.0656 81.2072 32.0216C81.5815 31.8846 82.396 31.7378 83.191 32.567H83.1935Z" fill="#28120E"/>
<path d="M77.2495 31.4174C77.2422 31.5079 77.2373 31.6008 77.2324 31.6938C77.9099 31.437 78.453 31.6498 78.7269 31.8063C78.7538 31.8234 78.7856 31.8308 78.8174 31.8332C78.903 31.8406 78.9911 31.7965 79.0302 31.7109C79.0767 31.6155 79.0449 31.4981 78.9569 31.4394C78.7538 31.3049 78.3429 31.1141 77.7314 31.2217C77.5504 31.2535 77.3889 31.3269 77.2495 31.4149V31.4174Z" fill="#28120E"/>
<path d="M87.4129 38.2004C87.7701 37.9655 87.9976 37.7185 88.044 37.4616C88.1492 36.8599 88.2079 36.0405 88.2348 35.1501L86.3831 36.4221C86.3831 36.4221 86.3587 37.7405 87.4129 38.2004V38.2004Z" fill="#28120E"/>
<path d="M86.1826 33.2471C86.1826 33.2471 87.3053 31.8846 88.247 32.6747C89.2842 33.543 88.4892 36.4905 86.3831 36.4245L86.1826 33.2471Z" fill="#F9AE83"/>
<path d="M86.3318 35.7836C86.4247 35.7836 86.5054 35.7151 86.5152 35.6197C86.6865 34.1301 87.5719 33.9002 87.6086 33.8904C87.7065 33.8659 87.7701 33.7681 87.7456 33.6678C87.7236 33.5699 87.6257 33.5063 87.5255 33.5284C87.4765 33.5381 86.3489 33.8096 86.1459 35.5757C86.1336 35.6785 86.207 35.769 86.3098 35.7812C86.3171 35.7812 86.3244 35.7812 86.3318 35.7812V35.7836Z" fill="#F58A69"/>
<path d="M87.5132 34.837C87.5573 34.837 87.6013 34.8223 87.638 34.7905C87.7138 34.722 87.7211 34.6071 87.6527 34.5312C87.638 34.5141 87.2711 34.1105 86.662 34.2451C86.5617 34.2671 86.4981 34.3649 86.5201 34.4652C86.5421 34.5655 86.64 34.6291 86.7403 34.6071C87.1316 34.5215 87.364 34.7685 87.3738 34.7783C87.4105 34.8174 87.4619 34.8394 87.5108 34.8394L87.5132 34.837Z" fill="#F58A69"/>
<path d="M80.5859 38.489C81.5375 38.489 82.0071 37.8726 82.0291 37.8432C82.0903 37.7601 82.0732 37.6451 81.99 37.5839C81.9068 37.5228 81.7919 37.5399 81.7307 37.6231C81.7087 37.6524 81.2342 38.2542 80.2533 38.0927C80.153 38.0756 80.0576 38.1441 80.0405 38.2444C80.0233 38.3447 80.0918 38.4401 80.1921 38.4572C80.3315 38.4792 80.4612 38.4914 80.5835 38.4914L80.5859 38.489Z" fill="#F58A69"/>
<path d="M79.6809 35.4265C79.7372 35.4265 79.791 35.402 79.8277 35.3531C79.8888 35.2724 79.8741 35.155 79.7934 35.0938L79.2993 34.7171L79.7274 34.6071C79.7983 34.5875 79.8521 34.5288 79.8643 34.4579L80.0527 33.2789C80.0698 33.1786 79.9989 33.0832 79.8986 33.066C79.7983 33.0489 79.7029 33.1174 79.6858 33.2201L79.517 34.2793L78.837 34.4554C78.7685 34.4725 78.7171 34.5288 78.7025 34.5973C78.6878 34.6658 78.7147 34.7392 78.771 34.7807L79.5684 35.3898C79.6026 35.4143 79.6418 35.429 79.6809 35.429V35.4265Z" fill="#F58A69"/>
<path d="M77.4036 75.8675C77.4036 75.8675 67.9446 77.9882 64.7109 78.9079C64.7109 78.9079 64.5544 83.6191 64.048 86.9506C63.6053 89.859 62.9326 93.0438 62.9326 93.0438L60.5844 93.374C60.5844 93.374 59.8628 79.5831 60.264 77.5626C60.6651 75.5446 70.4959 69.1261 79.857 69.833L77.4036 75.8675V75.8675Z" fill="#1E1E1E"/>
<path d="M56.7196 99.5039L63.9551 97.6082C64.2975 97.5177 64.5079 97.1899 64.4663 96.8548C64.4614 96.8083 64.4492 96.7594 64.4345 96.7129L63.1454 92.99C63.1454 92.99 62.8079 92.9288 62.3602 92.9411C62.0936 92.9484 61.8368 92.8212 61.6973 92.5962C61.6876 92.5791 61.6778 92.5619 61.668 92.5448C61.3109 91.8575 60.1955 91.9015 60.1881 92.6671C60.1881 92.765 60.1881 92.8628 60.193 92.9533C60.193 92.9753 60.193 92.9998 60.1955 93.0218C60.2052 93.1832 60.2199 93.33 60.2346 93.4596C60.2346 93.4621 60.2346 93.4645 60.2346 93.467C60.2786 93.7923 60.3349 93.9929 60.3349 93.9929C60.2713 94.1397 60.2101 94.284 60.1514 94.4258C60.1221 94.4968 60.0927 94.5653 60.0634 94.6362C59.9998 94.7854 59.9411 94.9297 59.8799 95.0692C59.853 95.1352 59.8237 95.1988 59.7968 95.26C59.7283 95.4116 59.6622 95.5559 59.5913 95.6929C59.5595 95.7541 59.5277 95.8152 59.4959 95.8764C59.2268 96.3656 58.9186 96.7325 58.4905 96.9111C57.7347 97.2242 56.475 97.6473 56.157 98.9609C56.1497 98.9878 56.1472 99.0147 56.1448 99.0416C56.1276 99.3424 56.4138 99.592 56.722 99.5112L56.7196 99.5039Z" fill="#DE9E26"/>
<path d="M56.7196 99.5039L63.9551 97.6082C64.2975 97.5177 64.5103 97.1899 64.4663 96.8548L56.1423 99.0367C56.1252 99.3376 56.4114 99.5871 56.7196 99.5063V99.5039Z" fill="#BE812B"/>
<path d="M60.0634 94.6289C60.1783 94.7292 60.3887 94.8343 60.7703 94.8808C60.8339 94.8906 60.9048 94.8955 60.9807 94.9004L60.9929 94.6949C60.9195 94.69 60.851 94.6827 60.7899 94.6753C60.352 94.6191 60.2028 94.4919 60.1539 94.4185C60.1245 94.4894 60.0952 94.5579 60.0658 94.6289H60.0634Z" fill="white"/>
<path d="M60.7605 94.8588C60.7923 94.9835 60.9195 95.0569 61.0443 95.0251C61.169 94.9933 61.2424 94.8661 61.2106 94.7414C61.1788 94.6166 61.0516 94.5433 60.9268 94.5751C60.8021 94.6069 60.7287 94.734 60.7605 94.8588Z" fill="white"/>
<path d="M59.7943 95.2551C59.9142 95.3284 60.0952 95.3994 60.3716 95.4361C60.4474 95.4483 60.5306 95.4556 60.6235 95.4605L60.6358 95.2551C60.5501 95.2502 60.4743 95.2428 60.4034 95.233C60.1221 95.1939 59.9655 95.1254 59.8775 95.0618C59.8506 95.1279 59.8212 95.1915 59.7943 95.2526V95.2551Z" fill="white"/>
<path d="M60.3691 95.4263C60.4009 95.551 60.5281 95.6244 60.6529 95.5926C60.7776 95.5608 60.851 95.4336 60.8192 95.3089C60.7874 95.1841 60.6602 95.1107 60.5355 95.1425C60.4107 95.1743 60.3373 95.3015 60.3691 95.4263Z" fill="white"/>
<path d="M59.4934 95.869C59.6133 95.94 59.7894 96.0036 60.0511 96.0427C60.1294 96.0549 60.2126 96.0623 60.3055 96.0696L60.3178 95.8641C60.2322 95.8592 60.1539 95.8519 60.0854 95.8397C59.8334 95.8054 59.6818 95.7443 59.5888 95.688C59.557 95.7492 59.5252 95.8103 59.4934 95.8715V95.869Z" fill="white"/>
<path d="M60.0487 96.0354C60.0805 96.1601 60.2077 96.2335 60.3324 96.2017C60.4572 96.1699 60.5306 96.0427 60.4988 95.9179C60.467 95.7932 60.3398 95.7198 60.215 95.7516C60.0903 95.7834 60.0169 95.9106 60.0487 96.0354Z" fill="white"/>
<path d="M60.2346 93.4547C60.5648 93.3642 60.8902 93.3227 60.8902 93.3227L60.7923 92.9606C60.5746 92.9386 60.3691 92.9704 60.1979 93.0169C60.2077 93.1783 60.2224 93.3251 60.237 93.4547H60.2346Z" fill="white"/>
<path d="M67.6193 83.4943L57.6515 96.7912L59.4592 98.3958C64.1605 93.9391 68.5879 90.3091 70.7845 86.3049C74.8817 83.2301 83.6435 74.8352 83.6435 74.8352C82.8241 72.9811 80.3927 69.6765 80.3927 69.6765C75.9629 73.1915 67.6193 83.4968 67.6193 83.4968V83.4943Z" fill="#1E1E1E"/>
<path d="M50.8661 95.9864L56.7758 101.231C57.0547 101.478 57.4681 101.473 57.7396 101.238C57.7787 101.204 57.813 101.167 57.8448 101.126L60.3593 97.8088C60.3593 97.8088 60.215 97.4761 59.9411 97.0896C59.7796 96.8597 59.738 96.5588 59.8555 96.3044C59.8652 96.2849 59.875 96.2677 59.8824 96.2482C60.2762 95.5315 59.5839 94.5751 58.9064 95.0178C58.8183 95.0741 58.7352 95.1328 58.6569 95.189C58.6373 95.2037 58.6177 95.2184 58.6006 95.2306C58.4636 95.3333 58.3438 95.4336 58.241 95.5217C58.2386 95.5217 58.2362 95.5266 58.2337 95.5266C57.9744 95.7565 57.8301 95.9228 57.8301 95.9228C57.6638 95.9522 57.5023 95.984 57.3433 96.0158C57.2626 96.0305 57.1843 96.0451 57.1085 96.0623C56.9422 96.0941 56.7783 96.1259 56.6193 96.1552C56.5459 96.1699 56.4725 96.1821 56.4016 96.1944C56.2279 96.2237 56.0616 96.2506 55.9002 96.2677C55.8268 96.2775 55.7558 96.2849 55.6825 96.2897C55.0929 96.3387 54.5915 96.2849 54.183 96.0133C53.4639 95.5339 52.3558 94.6753 51.0153 95.167C50.986 95.1768 50.9615 95.189 50.9371 95.2037C50.6607 95.3651 50.6117 95.7638 50.8637 95.9864H50.8661Z" fill="#DE9E26"/>
<path d="M50.8661 95.9864L56.7758 101.231C57.0547 101.478 57.4681 101.473 57.7396 101.238L50.9395 95.2037C50.6631 95.3651 50.6142 95.7638 50.8661 95.9864V95.9864Z" fill="#BE812B"/>
<path d="M57.1085 96.0623C57.0889 96.2237 57.1183 96.4683 57.3018 96.8303C57.3311 96.8915 57.3678 96.9575 57.4069 97.026L57.5953 96.9159C57.5561 96.8475 57.5219 96.7839 57.4925 96.7252C57.2846 96.3069 57.3091 96.1014 57.3458 96.0133C57.2651 96.028 57.1868 96.0427 57.111 96.0598L57.1085 96.0623Z" fill="white"/>
<path d="M57.3189 96.8108C57.2284 96.9111 57.2382 97.0676 57.3384 97.1557C57.4387 97.2462 57.5953 97.2364 57.6833 97.1361C57.7738 97.0358 57.7641 96.8793 57.6638 96.7912C57.5635 96.7007 57.4069 96.7105 57.3189 96.8108Z" fill="white"/>
<path d="M56.404 96.1944C56.4089 96.3436 56.4554 96.5441 56.5826 96.8083C56.6169 96.8817 56.6584 96.96 56.7074 97.0456L56.8957 96.9355C56.8492 96.8572 56.8125 96.7863 56.7783 96.7178C56.6486 96.4487 56.6169 96.2702 56.6193 96.1552C56.5459 96.1699 56.4725 96.1821 56.4016 96.1944H56.404Z" fill="white"/>
<path d="M56.5875 96.7985C56.497 96.8988 56.5068 97.0554 56.6071 97.1434C56.7074 97.2339 56.8639 97.2242 56.952 97.1239C57.0425 97.0236 57.0327 96.867 56.9324 96.779C56.8321 96.6885 56.6756 96.6982 56.5875 96.7985Z" fill="white"/>
<path d="M55.6849 96.2898C55.6922 96.4365 55.7387 96.6298 55.861 96.8817C55.8953 96.9575 55.9393 97.0358 55.9882 97.1214L56.1766 97.0113C56.1301 96.9331 56.0934 96.8597 56.0591 96.7936C55.9417 96.5515 55.905 96.3827 55.9026 96.2677C55.8292 96.2775 55.7583 96.2849 55.6849 96.2898V96.2898Z" fill="white"/>
<path d="M55.8659 96.8744C55.7754 96.9747 55.7852 97.1312 55.8855 97.2193C55.9858 97.3098 56.1423 97.3 56.2304 97.1997C56.3209 97.0994 56.3111 96.9429 56.2108 96.8548C56.1105 96.7643 55.954 96.7741 55.8659 96.8744Z" fill="white"/>
<path d="M58.2411 95.5241C58.515 95.7614 58.74 96.0207 58.74 96.0207L58.9993 95.7223C58.8917 95.5192 58.7401 95.3553 58.6006 95.233C58.4636 95.3358 58.3438 95.4361 58.2411 95.5241V95.5241Z" fill="white"/>
<path d="M69.7743 24.2773C69.7743 24.2773 70.3931 23.6682 70.7038 23.0225C71.012 22.3767 71.3104 21.6893 71.4939 21.2857C71.714 20.8014 71.2101 20.7916 70.875 21.1414C70.3662 21.6747 70.3075 22.0538 70.3075 22.0538C70.3075 22.0538 70.9606 19.28 70.8334 18.5241C70.716 17.8343 70.2806 19.346 69.8501 20.5764C69.8501 20.5764 70.0165 17.7879 69.63 17.5114C69.1236 17.147 68.9328 20.525 68.9328 20.525C68.9328 20.525 68.7029 18.0129 68.4069 18.0814C68.0767 18.1597 67.996 20.7598 67.996 20.7598C67.996 20.7598 67.6853 19.0476 67.5068 19.165C67.1497 19.3949 67.0567 23.0958 68.0792 24.4461C68.0792 24.4461 69.4612 24.539 69.7767 24.2748L69.7743 24.2773Z" fill="#F9AE83"/>
<path d="M70.7968 29.7492C70.3247 26.7209 69.9162 24.177 69.9162 24.177C69.2998 23.6951 68.5513 23.7758 67.8003 23.8639C67.4603 29.0398 68.0743 33.1419 68.8815 36.2557C70.1363 39.6435 76.5817 46.8008 76.5817 46.8008C78.8248 46.2113 78.2524 42.9898 78.2524 42.9898C74.8548 38.6798 71.626 34.8101 71.5746 34.7489C71.4963 34.2402 71.2004 32.3273 70.7968 29.7467V29.7492Z" fill="#5D4EA1"/>
<path d="M86.2926 70.0507C86.1948 70.4005 85.9404 70.6916 85.5955 70.8579C85.0647 71.1147 86.0921 70.853 84.9057 71.0218C83.8343 71.1759 79.5684 72.0418 78.4652 71.9391C77.4892 71.8608 77.137 71.8021 76.2393 71.5306C75.0749 71.1783 73.5853 70.5913 72.2399 69.8942C71.6504 69.5884 71.3814 68.9304 71.6064 68.3433L74.7887 56.7465C74.8279 56.6413 74.8548 56.5312 74.8621 56.4187L77.1639 43.6453C77.2104 43.0705 77.6678 42.6008 78.2769 42.5054L81.1216 42.0529L82.2884 41.8695C82.9317 41.7667 83.5848 41.7472 84.2306 41.7985C84.8764 41.8597 85.5148 41.9918 86.1312 42.2046L87.3885 42.64L89.9715 43.5304C90.5537 43.7309 90.9231 44.2715 90.8717 44.8463L89.0763 57.8301C89.0689 57.901 89.0567 57.9695 89.0396 58.038L86.2951 70.0556L86.2926 70.0507Z" fill="#5D4EA1"/>
<path d="M87.2417 42.6693L82.2028 71.3863C81.1192 71.4621 80.0551 71.4156 78.9642 71.2297C77.998 71.0781 77.0978 70.831 76.227 70.4886L76.3469 69.7767L76.4692 69.0331L76.7578 67.3038L76.8826 66.5601L77.1712 64.8332L77.2935 64.0896L77.5846 62.3627L77.7069 61.6215L77.9955 59.8946L78.1203 59.1559L78.4089 57.4265L78.5312 56.6853L78.8199 54.956L78.9446 54.2173L79.2333 52.4854L79.358 51.7492L79.6466 50.0149L79.7689 49.2786L80.0576 47.5444L80.1823 46.8105L80.471 45.0787L80.5957 44.3449L80.8844 42.6082L80.9822 42.1483L80.992 42.0872L82.1979 41.7129C82.8486 41.6567 83.5017 41.686 84.1425 41.7839C84.781 41.8939 85.5392 41.9453 86.1361 42.207L87.002 42.5054L87.2466 42.6742L87.2417 42.6693Z" fill="white"/>
<path d="M87.0803 43.6233L86.9531 44.3473C85.8401 44.3473 84.7712 44.2373 83.8001 44.0758C82.5991 43.8777 81.5448 43.6037 80.7474 43.3616L80.8672 42.6278C82.2713 43.0607 84.5804 43.6233 87.0656 43.6184L87.0778 43.6233H87.0803Z" fill="#E2E2E2"/>
<path d="M86.7183 45.6853L86.5911 46.4143C85.4928 46.4143 84.4385 46.3091 83.4821 46.1501C82.2688 45.952 81.2072 45.6707 80.4074 45.4212L80.5321 44.6873C81.9362 45.1276 84.2355 45.6976 86.7207 45.6853H86.7183Z" fill="#E2E2E2"/>
<path d="M86.3465 47.8061L86.2168 48.5399C85.1332 48.5424 84.0961 48.4396 83.1519 48.2831C81.9313 48.0825 80.8648 47.7963 80.0551 47.5395L80.1799 46.8056C81.5791 47.2557 83.8661 47.833 86.3465 47.8061Z" fill="#E2E2E2"/>
<path d="M85.911 50.2815L85.7814 51.0153C84.71 51.0202 83.6876 50.9175 82.7556 50.7658C81.5301 50.5653 80.4612 50.2742 79.6466 50.01L79.7689 49.2737C81.1681 49.7312 83.4405 50.3133 85.9135 50.2815H85.911Z" fill="#E2E2E2"/>
<path d="M85.4756 52.7594L85.346 53.4908C84.2917 53.4981 83.2791 53.4003 82.3545 53.2486C81.1216 53.0456 80.0478 52.7496 79.2308 52.4805L79.3556 51.7443C80.7498 52.209 83.0051 52.7936 85.4756 52.7594V52.7594Z" fill="#E2E2E2"/>
<path d="M85.0402 55.2324L84.9106 55.9662C83.8661 55.9784 82.8681 55.8806 81.9557 55.7314C80.718 55.5283 79.6393 55.225 78.8174 54.9535L78.9422 54.2148C80.3316 54.6893 82.577 55.2788 85.0402 55.2348V55.2324Z" fill="#E2E2E2"/>
<path d="M84.6073 57.7078L84.4776 58.4416C83.4454 58.4539 82.4547 58.3609 81.5521 58.2141C80.3144 58.0111 79.2333 57.7054 78.4089 57.4241L78.5312 56.6829C79.9206 57.1648 82.149 57.7592 84.6073 57.7103V57.7078Z" fill="#E2E2E2"/>
<path d="M84.1719 60.1808L84.0422 60.9146C83.0173 60.9317 82.0389 60.8412 81.1461 60.6945C79.9035 60.4914 78.8223 60.1808 77.9955 59.8922L78.1203 59.1534C79.5048 59.6426 81.7209 60.2395 84.1719 60.1832V60.1808Z" fill="#E2E2E2"/>
<path d="M83.7365 62.6562L83.6068 63.3925C82.5917 63.4096 81.6231 63.3191 80.7376 63.1723C79.495 62.9693 78.4163 62.6538 77.5846 62.3602L77.7069 61.6191C79.0865 62.1205 81.2904 62.7198 83.7365 62.6587V62.6562Z" fill="#E2E2E2"/>
<path d="M83.3011 65.1316L83.1714 65.8655C82.1637 65.885 81.2048 65.7994 80.3267 65.6551C79.0841 65.4521 78.0029 65.1316 77.1712 64.8308L77.2935 64.0872C78.6731 64.5959 80.8599 65.2001 83.3011 65.1316V65.1316Z" fill="#E2E2E2"/>
<path d="M82.8657 67.6046L82.736 68.3433C81.7356 68.3653 80.7865 68.2797 79.9157 68.1379C78.6707 67.9348 77.5895 67.612 76.7578 67.3038L76.8826 66.5601C78.2573 67.0738 80.4318 67.6829 82.8657 67.6071V67.6046Z" fill="#E2E2E2"/>
<path d="M82.4327 70.08L82.3031 70.8188C81.31 70.8408 80.3707 70.7576 79.5048 70.6157C78.2622 70.4127 77.181 70.0874 76.3469 69.7767L76.4692 69.0331C77.8414 69.5517 80.0038 70.1632 82.4303 70.08H82.4327Z" fill="#E2E2E2"/>
<path d="M63.9979 69.6792L63.7617 72.1826C63.758 72.2216 63.7867 72.2562 63.8257 72.2599L83.9799 74.1615C84.0189 74.1652 84.0535 74.1365 84.0572 74.0975L84.2934 71.5941C84.297 71.5551 84.2684 71.5205 84.2294 71.5168L64.0752 69.6152C64.0362 69.6115 64.0016 69.6402 63.9979 69.6792Z" fill="#DDDDDD"/>
<path d="M61.6338 72.0491C60.8706 71.9782 60.2493 71.4009 60.1221 70.6451L57.6662 56.0714C57.517 55.181 58.2508 54.3909 59.151 54.4741L68.2382 55.3302C68.8521 55.3889 69.3511 55.8463 69.4612 56.453L72.4821 73.0716L61.6338 72.0491Z" fill="#DDDDDD"/>
<path d="M66.8292 69.0478L66.7216 68.2651L67.338 68.3115L67.1521 67.59L67.9691 67.6535L68.155 68.3751L68.6589 68.4143L68.473 67.6927L69.29 67.7563L69.4759 68.4779L70.1901 68.5317L70.2978 69.3144L69.6813 69.268L69.8477 69.9308L70.5619 69.9847L70.6696 70.7674L70.0531 70.7209L70.239 71.4425L69.4221 71.3789L69.2362 70.6573L68.7323 70.6182L68.9182 71.3398L68.1012 71.2762L67.9153 70.5546L67.201 70.5008L67.0934 69.718L67.7098 69.7645L67.5435 69.1016L66.8292 69.0478ZM68.5268 69.8281L69.0307 69.8672L68.8644 69.2044L68.3605 69.1652L68.5268 69.8281Z" fill="#4A429A"/>
<path d="M58.7865 58.4734C58.9993 59.425 59.8628 60.2566 60.7165 60.3324C61.5702 60.4058 62.0887 59.6965 61.8759 58.7449C61.6631 57.7934 60.7996 56.9618 59.946 56.8859C59.0923 56.8125 58.5737 57.5219 58.7865 58.4734Z" fill="#FBB416"/>
<path d="M60.5135 58.2998C60.555 58.4905 60.6504 58.6495 60.7238 58.6569C60.7972 58.6642 60.8241 58.515 60.7801 58.3242C60.7385 58.1334 60.6431 57.9744 60.5697 57.9671C60.4963 57.9597 60.4694 58.109 60.5135 58.2998Z" fill="#28100C"/>
<path d="M59.7087 58.2288C59.7503 58.4196 59.8457 58.5786 59.9191 58.5859C59.9924 58.5933 60.0193 58.4441 59.9753 58.2533C59.9337 58.0625 59.8383 57.9035 59.765 57.8961C59.6916 57.8888 59.6647 58.038 59.7087 58.2288Z" fill="#28100C"/>
<path d="M60.5061 59.4445C61.1714 59.5032 61.1568 58.7743 61.1568 58.767C61.1568 58.7278 61.1225 58.6862 61.0858 58.674C61.0467 58.6618 61.0173 58.6838 61.0198 58.7254C61.0198 58.7523 61.0271 59.3442 60.4743 59.2953C59.9191 59.2464 59.6573 58.63 59.6475 58.6055C59.6304 58.5639 59.5888 58.5346 59.5546 58.5419C59.5203 58.5468 59.5057 58.5859 59.5228 58.6275C59.5252 58.6349 59.8432 59.3883 60.5086 59.447L60.5061 59.4445Z" fill="#28100C"/>
<path d="M69.4636 56.4554L72.4601 72.9371L73.4997 73.0349L70.5032 56.5533C70.3932 55.9466 69.8942 55.4868 69.2802 55.4305L68.2406 55.3327C68.8546 55.3914 69.3536 55.8488 69.4636 56.4554V56.4554Z" fill="#EAEAEA"/>
<path d="M72.3647 72.827C72.3647 72.827 72.3818 72.827 72.3916 72.8245C72.4748 72.8099 72.531 72.7291 72.5139 72.646L69.5517 56.201C69.537 56.1179 69.4563 56.0616 69.3731 56.0763C69.29 56.0909 69.2337 56.1717 69.2508 56.2548L72.213 72.6998C72.2253 72.7732 72.2913 72.827 72.3647 72.827V72.827Z" fill="#EAEAEA"/>
<path d="M66.1565 64.0382C66.2789 64.9506 65.6551 65.6209 64.7623 65.5377C63.8695 65.4545 63.0476 64.6449 62.9253 63.7325C62.803 62.8201 63.4267 62.1499 64.3195 62.233C65.2124 62.3162 66.0342 63.1259 66.1565 64.0358V64.0382Z" fill="white"/>
<path d="M88.252 73.6807C88.5773 73.6807 88.9271 73.5682 89.2842 73.3456C90.5855 72.531 92.1608 70.0605 92.7454 66.3816C92.7576 66.2984 92.7014 66.2201 92.6182 66.2055C92.535 66.1908 92.4568 66.2495 92.4421 66.3327C91.8721 69.9186 90.3629 72.3084 89.1203 73.0863C88.6971 73.3505 88.296 73.4361 87.9609 73.3333C87.6918 73.2502 87.4814 73.0667 87.3249 72.7683C86.2413 70.7258 88.1248 64.5739 88.1443 64.5128C88.1688 64.4321 88.1248 64.3464 88.044 64.322C87.9633 64.2975 87.8777 64.3416 87.8532 64.4223C87.7725 64.6791 85.9135 70.7601 87.0558 72.9126C87.2515 73.282 87.5279 73.5217 87.8753 73.6269C87.9976 73.6635 88.1247 73.6831 88.2544 73.6831L88.252 73.6807Z" fill="white"/>
</g>
<defs>
<clipPath id="clip0_6_5877">
<rect width="154" height="101.414" fill="white"/>
</clipPath>
</defs>
</svg>
